PathFileType	4	(X/Y/Z)	RBDS013\RBDS013runT45.trc
DataRate	CameraRate	NumFrames	NumMarkers	Units	OrigDataRate	OrigDataStartFrame	OrigNumFrames
150.000000	150.000000	5	33	mm	150.000000	3937	4500
Frame#	Time	L.ASIS			L.Heel.Bottom			L.Heel.Lateral			L.Heel.Top			L.Iliac.Crest			L.MT1			L.MT5			L.PSIS			L.Shank.Bottom.Lateral			L.Shank.Bottom.Medial			L.Shank.Top.Lateral			L.Shank.Top.Medial			L.Thigh.Bottom.Lateral			L.Thigh.Bottom.Medial			L.Thigh.Top.Lateral			L.Thigh.Top.Medial			R.ASIS			R.ASY			R.Heel.Bottom			R.Heel.Lateral			R.Heel.Top			R.Iliac.Crest			R.MT1			R.MT5			R.PSIS			R.Shank.Bottom.Lateral			R.Shank.Bottom.Medial			R.Shank.Top.Lateral			R.Shank.Top.Medial			R.Thigh.Bottom.Lateral			R.Thigh.Bottom.Medial			R.Thigh.Top.Lateral			R.Thigh.Top.Medial			
		X1	Y1	Z1	X2	Y2	Z2	X3	Y3	Z3	X4	Y4	Z4	X5	Y5	Z5	X6	Y6	Z6	X7	Y7	Z7	X8	Y8	Z8	X9	Y9	Z9	X10	Y10	Z10	X11	Y11	Z11	X12	Y12	Z12	X13	Y13	Z13	X14	Y14	Z14	X15	Y15	Z15	X16	Y16	Z16	X17	Y17	Z17	X18	Y18	Z18	X19	Y19	Z19	X20	Y20	Z20	X21	Y21	Z21	X22	Y22	Z22	X23	Y23	Z23	X24	Y24	Z24	X25	Y25	Z25	X26	Y26	Z26	X27	Y27	Z27	X28	Y28	Z28	X29	Y29	Z29	X30	Y30	Z30	X31	Y31	Z31	X32	Y32	Z32	X33	Y33	Z33	

3938	26.24666666666667	2388.287225384617	903.7595102186413	951.234807232379	2475.682894879789	37.8471040296281	1062.84303050254	2496.012729630177	54.2285396393997	1016.204561534367	2479.06492914729	83.491535137974	1052.667749849727	2321.362046874799	976.7595717040998	915.803254421707	2680.61563771361	85.39142918451056	1081.514095575951	2651.452213769413	47.34684740620209	980.7565559126242	2235.704093765114	944.1817884373916	1019.318112125552	2518.845747826561	170.9067962518293	983.1733450843827	2478.90516409308	169.9060594704344	1021.551165345691	2497.615173199238	245.9910266273724	964.7665073082317	2459.855202989939	246.4159229948516	1003.334549758811	2473.646924188516	579.6197253904749	919.6844051456895	2411.53193954801	552.9667383372719	947.4824602924872	2420.345323720469	673.1835954508024	897.1387019063567	2361.55265458924	648.7312960271098	923.1939545937731	2412.810403800568	899.2628673521164	1181.177618038885	1783.374395636073	542.7814710214609	1117.180236475221	1840.987423470048	721.7458058545691	1077.555115903381	1840.805806159854	698.9783375428182	1122.802246526438	1876.855774167068	686.6080451626368	1087.31070408408	2367.345357048035	970.4895697743259	1210.697563090001	1740.326885472297	536.2313720699119	1071.072029972036	1740.588667186073	583.7542420300691	1169.983118556493	2244.551793683187	947.9079303465205	1118.236579295009	1907.449995246651	618.9027816135768	1157.636862718338	1925.164629277364	649.7376590574838	1120.425259748152	1987.4994743047	599.685842335814	1178.059610646417	2002.042276361881	633.619015022681	1139.533164123732	2242.708016605007	594.9935214351408	1226.860866483702	2188.090591512034	609.5559403946204	1179.516362568767	2262.507961892981	702.4730756119529	1231.299549510561	2211.532126295339	716.7177114989737	1185.744818384424	
3939	26.25333333333333	2387.362368520949	899.2727537120001	950.5795176929594	2451.822264468955	35.8878213709877	1064.134719854768	2472.998267272234	52.58152723801343	1018.038827549409	2457.212582352471	81.6064585426174	1055.125971425946	2320.617924652981	971.641948399973	916.1149369890292	2658.886364870502	75.31641817894685	1084.70676714412	2628.291240047509	41.40836141661058	982.5151784831854	2234.85395406521	938.4389593669407	1020.744096766635	2503.243792580363	165.5813587319809	985.5388576747508	2462.663525373941	166.7405546889143	1022.969987990767	2486.044205664251	241.3517927017647	966.4610600084338	2447.750965030064	243.8655904797838	1004.185397772849	2472.236341403463	575.6697478321681	919.8330698644817	2410.284506001897	548.5802406796846	947.4391979477224	2418.349770696236	668.827093515358	897.1325859869895	2359.68542135207	643.9900481051728	923.0305525390595	2413.143368502058	893.5115800942891	1180.399153332583	1799.887485484237	552.8834364052382	1117.499916963755	1865.100716588971	729.8448161967153	1078.604283696907	1864.073705345912	706.6388724945698	1123.707683703186	1899.593273925798	693.183380961962	1088.062255708762	2369.501861348683	963.0884545756151	1211.018337968794	1756.772818109214	548.9433351652963	1070.91504533576	1759.218003095864	595.5095859176697	1170.368615949325	2243.938228529859	941.1955776119275	1120.14859317926	1926.643122839365	623.2297979219293	1158.376955393155	1946.275126329811	653.2598625527122	1121.494729564339	2005.241656087855	599.7115304776503	1179.426777892122	2021.936393104964	632.9889667734507	1141.112230359089	2249.664281002225	586.3754717305725	1228.406174327095	2194.450606097721	599.2935494090189	1181.437132456552	2266.622597280318	694.408972960166	1232.2925207835	2214.960164952744	707.1876572520326	1187.130816493859	
3940	26.26	2386.292731124488	894.5872227091073	949.9346451061632	2425.906959756548	34.41975518201914	1065.550739424017	2447.855891008707	51.67668170266111	1020.079393897238	2433.188515580589	80.22645497295547	1057.926648824747	2320.054838378983	966.0400255893067	916.2995234161165	2634.996644639468	66.19780865216664	1087.965310893544	2602.906430544914	36.71727477785882	984.2343382310362	2233.870960974524	932.9159264495346	1022.243913413151	2486.039605357212	160.8288040665292	988.2633871324093	2444.759536630985	164.3982800213523	1024.566492275372	2473.282659291167	237.1826457937845	968.4106235770817	2434.404194351752	242.0077234600429	1005.118080698464	2470.34177996875	571.4961451858736	920.0139023820852	2408.557853250061	544.0784486171921	947.5461036337445	2415.966777076318	664.3162283536988	897.1376561314355	2357.394901193813	639.1695574788652	922.9407050702678	2413.218296407108	887.4559978371971	1179.466734856077	1817.675062843133	560.6016119513448	1117.996729107005	1889.328935726798	735.6371451234687	1079.735254936938	1887.61180697125	712.0222200491111	1124.710487219019	1922.616772484636	697.7235906191147	1088.831900080616	2371.912082239558	955.4360402064463	1211.235908311306	1774.519502846509	559.0026788836781	1070.964559411425	1778.933997761719	604.5281017381141	1170.906160384283	2243.301285473659	934.7055120213585	1122.148073103471	1946.546391708867	625.8364658514657	1159.153089846659	1967.945014199528	654.9423298088089	1122.54099046732	2023.594211536997	598.3709133386124	1180.770044188789	2042.300697615191	630.8443753487416	1142.575858888155	2257.137732547769	577.756235324748	1230.120397354151	2201.318761422865	588.8260279523946	1183.621124426652	2270.959335133718	686.3205381039131	1233.455829826506	2218.568063038084	697.4328008556181	1188.777834913662	
3941	26.26666666666667	2385.018366754142	889.7991790979576	949.2838011425243	2398.421103137777	33.43015369398852	1067.032762631035	2421.04073731827	51.45744159726306	1022.233841031093	2407.378546317098	79.32692035220765	1060.923363689175	2319.596700641773	960.031781223759	916.3477176611398	2609.297556034169	58.43251064851655	1091.161572976637	2575.759767465266	33.39735566346341	985.8785155796816	2232.705885558385	927.7210008981482	1023.791347513375	2467.332282525394	156.7979129990721	991.2271072423952	2425.360421543397	162.946412925449	1026.288089271773	2459.298780608769	233.5796811322692	970.566274586392	2419.842221915986	240.8573897756849	1006.143410216203	2467.689468376624	567.0495914084898	920.2729846022027	2406.057704724398	539.5229357433418	947.9048601887988	2413.047393753629	659.6718619758318	897.1875531901063	2354.522086294313	634.3964503297929	923.0208202792173	2412.967684902286	881.2432080945083	1178.425572422356	1836.484375513674	565.9154620646123	1118.589770309374	1913.303175260937	739.3043737477078	1081.045795498321	1911.076474998284	715.2669780821346	1125.886740283886	1945.602448325631	700.3947024034043	1089.699137235542	2374.298854300945	947.7543467617103	1211.372523083692	1793.249246537587	566.3479786255117	1071.18798341835	1799.409613647299	610.7373221211196	1171.580463891464	2242.598456087261	928.5469232309998	1124.139288695537	1966.972671128335	626.7994935552234	1160.020475441183	1989.948979222734	654.9428646191327	1123.626464491188	2042.472430518751	595.7812008173208	1182.115917971582	2062.998074550107	627.3883030680898	1143.978591942608	2265.257095412589	569.3475701798017	1231.978473994366	2208.859208472765	578.3263044010181	1186.020730357522	2275.584239366478	678.3803441383791	1234.751791509351	2222.443700790842	687.5771900235784	1190.651202686326	
3942	26.27333333333333	2383.487193454241	885.02430171558	948.601661166759	2369.798184980423	32.88758825194026	1068.502469651693	2392.969185356535	51.82007051879334	1024.381414423971	2380.152475039299	78.86740226337547	1063.931883689181	2319.134759662503	953.7541839822875	916.2644975606189	2582.133693316824	52.25775836961245	1094.161642799699	2547.288116861482	31.42122200438009	987.4025303931531	2231.324684004638	922.9652019583707	1025.358761243225	2447.201703024576	153.5736358369186	994.2680303149713	2404.620802871462	162.3852119159326	1028.053339013514	2444.040158464541	230.5908688710992	972.8426191351745	2404.076881570417	240.3810663845186	1007.247571203525	2464.03945588662	562.3233326648028	920.6563063805586	2402.523128098225	534.9923898115347	948.5838085387335	2409.460360870674	654.9428654046702	897.3207787147081	2350.928372688009	629.8053310078362	923.3442624940441	2412.3383878361	875.0457506861807	1177.333526836731	1856.050719345987	568.8350364381686	1119.208334749481	1936.637856148837	741.040503963891	1082.620724655473	1934.105418789076	716.5295875669415	1127.301658313574	1968.207279292107	701.3832260401205	1090.740028159703	2376.363344052613	940.2831507503994	1211.458072975611	1812.657337683633	570.9520807746738	1071.551334796634	1820.31102648483	614.0993169914423	1172.371089276791	2241.779713010389	922.83615707706	1126.028268520359	1987.711480235342	626.2323535746009	1161.025484258251	2012.042634731234	653.4604252624936	1124.802408942258	2061.773165550894	592.109994524611	1183.486000605498	2083.876216072417	622.8772793699461	1145.368995110507	2274.148410350032	561.3887127388168	1233.943839474173	2217.241083299236	568.0030319794987	1188.570215902867	2280.564761981521	670.7764373478844	1236.131860815418	2226.686287189907	677.7676137618433	1192.699301278234	
